<svg width="28" height="34" viewBox="0 0 28 34" fill="none" xmlns="http://www.w3.org/2000/svg">
<path d="M23.4332 10.3249L13.9998 0.908203L4.5665 10.3249C1.9665 12.9249 0.666504 16.3915 0.666504 19.7249C0.666504 23.0582 1.9665 26.5749 4.5665 29.1749C7.1665 31.7749 10.5832 33.0915 13.9998 33.0915C17.4165 33.0915 20.8332 31.7749 23.4332 29.1749C26.0332 26.5749 27.3332 23.0582 27.3332 19.7249C27.3332 16.3915 26.0332 12.9249 23.4332 10.3249ZM3.99984 20.3249C4.0165 16.9915 5.03317 14.8749 6.93317 12.9915L13.9998 5.77487L21.0665 13.0749C22.9665 14.9415 23.9832 16.9915 23.9998 20.3249H3.99984Z" fill="black"/>
</svg>
